<svg xmlns="http://www.w3.org/2000/svg" xmlns:xlink="http://www.w3.org/1999/xlink" width="500" zoomAndPan="magnify" viewBox="0 0 375 374.999991" height="500" preserveAspectRatio="xMidYMid meet" version="1.0"><defs><g/><clipPath id="648568aa45"><path d="M 243.648438 211.566406 L 256.839844 211.566406 L 256.839844 224.757812 L 243.648438 224.757812 Z M 243.648438 211.566406 " clip-rule="nonzero"/></clipPath><clipPath id="6ffd3ad0a6"><path d="M 250.246094 211.566406 C 246.601562 211.566406 243.648438 214.519531 243.648438 218.164062 C 243.648438 221.804688 246.601562 224.757812 250.246094 224.757812 C 253.886719 224.757812 256.839844 221.804688 256.839844 218.164062 C 256.839844 214.519531 253.886719 211.566406 250.246094 211.566406 Z M 250.246094 211.566406 " clip-rule="nonzero"/></clipPath><clipPath id="987e0e6d45"><path d="M 43 62.050781 L 329.328125 62.050781 L 329.328125 337.300781 L 43 337.300781 Z M 43 62.050781 " clip-rule="nonzero"/></clipPath></defs><g fill="#ffffff" fill-opacity="1"><g transform="translate(212.341196, 320.516546)"><g><path d="M 7.015625 -14.015625 C 6.898438 -14.078125 6.6875 -14.148438 6.375 -14.234375 C 6.070312 -14.328125 5.710938 -14.398438 5.296875 -14.453125 C 4.878906 -14.503906 4.4375 -14.519531 3.96875 -14.5 C 3.507812 -14.476562 3.0625 -14.398438 2.625 -14.265625 C 1.832031 -14.023438 1.285156 -13.703125 0.984375 -13.296875 C 0.679688 -12.890625 0.609375 -12.421875 0.765625 -11.890625 C 0.859375 -11.585938 1.007812 -11.351562 1.21875 -11.1875 C 1.425781 -11.03125 1.691406 -10.921875 2.015625 -10.859375 C 2.335938 -10.796875 2.726562 -10.765625 3.1875 -10.765625 C 3.65625 -10.773438 4.1875 -10.789062 4.78125 -10.8125 C 5.550781 -10.832031 6.265625 -10.820312 6.921875 -10.78125 C 7.578125 -10.738281 8.160156 -10.613281 8.671875 -10.40625 C 9.179688 -10.195312 9.617188 -9.894531 9.984375 -9.5 C 10.347656 -9.101562 10.628906 -8.566406 10.828125 -7.890625 C 11.066406 -7.097656 11.125 -6.375 11 -5.71875 C 10.875 -5.0625 10.609375 -4.484375 10.203125 -3.984375 C 9.804688 -3.492188 9.300781 -3.066406 8.6875 -2.703125 C 8.082031 -2.347656 7.414062 -2.0625 6.6875 -1.84375 C 5.582031 -1.507812 4.441406 -1.347656 3.265625 -1.359375 C 2.085938 -1.367188 0.976562 -1.546875 -0.0625 -1.890625 L 0.4375 -4.734375 C 0.613281 -4.640625 0.894531 -4.539062 1.28125 -4.4375 C 1.664062 -4.34375 2.109375 -4.265625 2.609375 -4.203125 C 3.109375 -4.140625 3.644531 -4.117188 4.21875 -4.140625 C 4.800781 -4.160156 5.378906 -4.257812 5.953125 -4.4375 C 7.535156 -4.914062 8.175781 -5.664062 7.875 -6.6875 C 7.78125 -6.988281 7.609375 -7.222656 7.359375 -7.390625 C 7.109375 -7.554688 6.789062 -7.671875 6.40625 -7.734375 C 6.019531 -7.804688 5.566406 -7.835938 5.046875 -7.828125 C 4.535156 -7.828125 3.96875 -7.820312 3.34375 -7.8125 C 2.582031 -7.789062 1.90625 -7.816406 1.3125 -7.890625 C 0.71875 -7.960938 0.203125 -8.101562 -0.234375 -8.3125 C -0.671875 -8.519531 -1.035156 -8.800781 -1.328125 -9.15625 C -1.617188 -9.507812 -1.851562 -9.972656 -2.03125 -10.546875 C -2.257812 -11.285156 -2.320312 -11.988281 -2.21875 -12.65625 C -2.125 -13.320312 -1.890625 -13.921875 -1.515625 -14.453125 C -1.140625 -14.992188 -0.65625 -15.460938 -0.0625 -15.859375 C 0.53125 -16.253906 1.195312 -16.566406 1.9375 -16.796875 C 2.976562 -17.109375 3.984375 -17.234375 4.953125 -17.171875 C 5.929688 -17.117188 6.8125 -16.96875 7.59375 -16.71875 Z M 7.015625 -14.015625 "/></g></g></g><g fill="#ffffff" fill-opacity="1"><g transform="translate(234.266525, 313.098894)"><g><path d="M 5.96875 -20.328125 L 12.96875 -6.609375 L 10.328125 -5.265625 L 7.34375 -11.125 L 1.109375 -7.953125 L 4.09375 -2.09375 L 1.4375 -0.734375 L -5.5625 -14.453125 L -2.90625 -15.8125 L -0.078125 -10.28125 L 6.15625 -13.453125 L 3.328125 -18.984375 Z M 5.96875 -20.328125 "/></g></g></g><g fill="#ffffff" fill-opacity="1"><g transform="translate(256.997694, 300.419806)"><g><path d="M -4.625 -15.875 L -2.515625 -17.484375 L 11.515625 -8.8125 L 9.0625 -6.9375 L 5.578125 -9.125 L 1.296875 -5.84375 L 2.53125 -1.9375 L 0.09375 -0.0625 Z M 3.875 -10.453125 L -1.484375 -13.984375 L 0.421875 -7.8125 Z M 3.875 -10.453125 "/></g></g></g><g fill="#ffffff" fill-opacity="1"><g transform="translate(275.768576, 284.9008)"><g><path d="M 1.09375 -1.171875 L -10.203125 -11.65625 L -8.171875 -13.84375 L 1.203125 -5.140625 L 6.546875 -10.90625 L 8.46875 -9.125 Z M 1.09375 -1.171875 "/></g></g></g><g fill="#ffffff" fill-opacity="1"><g transform="translate(290.561835, 267.936021)"><g><path d="M 4.53125 -6.8125 C 3.914062 -5.863281 3.171875 -5.125 2.296875 -4.59375 C 1.421875 -4.0625 0.503906 -3.71875 -0.453125 -3.5625 C -1.421875 -3.40625 -2.398438 -3.425781 -3.390625 -3.625 C -4.378906 -3.832031 -5.285156 -4.203125 -6.109375 -4.734375 C -6.984375 -5.296875 -7.707031 -5.988281 -8.28125 -6.8125 C -8.863281 -7.644531 -9.273438 -8.539062 -9.515625 -9.5 C -9.765625 -10.457031 -9.816406 -11.441406 -9.671875 -12.453125 C -9.523438 -13.460938 -9.160156 -14.425781 -8.578125 -15.34375 C -7.972656 -16.28125 -7.234375 -17.007812 -6.359375 -17.53125 C -5.484375 -18.0625 -4.554688 -18.398438 -3.578125 -18.546875 C -2.597656 -18.691406 -1.613281 -18.660156 -0.625 -18.453125 C 0.363281 -18.253906 1.265625 -17.890625 2.078125 -17.359375 C 2.929688 -16.804688 3.644531 -16.113281 4.21875 -15.28125 C 4.800781 -14.457031 5.21875 -13.578125 5.46875 -12.640625 C 5.71875 -11.703125 5.769531 -10.722656 5.625 -9.703125 C 5.476562 -8.691406 5.113281 -7.726562 4.53125 -6.8125 Z M -4.453125 -7.296875 C -3.898438 -6.929688 -3.3125 -6.664062 -2.6875 -6.5 C -2.0625 -6.332031 -1.4375 -6.28125 -0.8125 -6.34375 C -0.195312 -6.40625 0.378906 -6.59375 0.921875 -6.90625 C 1.460938 -7.21875 1.921875 -7.671875 2.296875 -8.265625 C 2.691406 -8.867188 2.914062 -9.484375 2.96875 -10.109375 C 3.03125 -10.742188 2.957031 -11.351562 2.75 -11.9375 C 2.539062 -12.53125 2.226562 -13.078125 1.8125 -13.578125 C 1.40625 -14.078125 0.9375 -14.5 0.40625 -14.84375 C -0.15625 -15.207031 -0.753906 -15.46875 -1.390625 -15.625 C -2.023438 -15.78125 -2.644531 -15.828125 -3.25 -15.765625 C -3.863281 -15.710938 -4.4375 -15.523438 -4.96875 -15.203125 C -5.507812 -14.890625 -5.972656 -14.4375 -6.359375 -13.84375 C -6.742188 -13.238281 -6.960938 -12.617188 -7.015625 -11.984375 C -7.078125 -11.347656 -7.003906 -10.738281 -6.796875 -10.15625 C -6.597656 -9.582031 -6.289062 -9.046875 -5.875 -8.546875 C -5.46875 -8.054688 -4.992188 -7.640625 -4.453125 -7.296875 Z M -4.453125 -7.296875 "/></g></g></g><g fill="#ffffff" fill-opacity="1"><g transform="translate(304.111818, 245.283787)"><g><path d="M 5.171875 -13.1875 L -4.328125 -16.90625 L 1.296875 -10.453125 L 0.703125 -8.9375 L -7.828125 -8 L 1.671875 -4.28125 L 0.59375 -1.5 L -13.75 -7.125 L -12.59375 -10.109375 L -2.765625 -11.15625 L -9.234375 -18.640625 L -8.078125 -21.609375 L 6.265625 -15.984375 Z M 5.171875 -13.1875 "/></g></g></g><g fill="#ffffff" fill-opacity="1"><g transform="translate(139.318434, 223.082618)"><g><path d="M 63.625 -65.765625 C 63.570312 -65.085938 62.957031 -64.503906 61.78125 -64.015625 C 60.613281 -63.523438 59.488281 -63.28125 58.40625 -63.28125 C 57.726562 -63.28125 57.175781 -63.394531 56.75 -63.625 C 56.320312 -63.851562 56.132812 -64.226562 56.1875 -64.75 C 56.476562 -67.132812 56.476562 -69.613281 56.1875 -72.1875 C 55.789062 -75.320312 54.707031 -78.15625 52.9375 -80.6875 C 51.164062 -83.226562 48.910156 -85.253906 46.171875 -86.765625 C 43.441406 -88.273438 40.394531 -89.03125 37.03125 -89.03125 C 33.15625 -89.03125 29.660156 -88.128906 26.546875 -86.328125 C 23.441406 -84.535156 21.117188 -82.054688 19.578125 -78.890625 C 18.046875 -75.734375 17.675781 -72.070312 18.46875 -67.90625 C 18.925781 -65.738281 19.796875 -63.84375 21.078125 -62.21875 C 22.359375 -60.59375 23.882812 -59.164062 25.65625 -57.9375 C 27.425781 -56.71875 29.222656 -55.625 31.046875 -54.65625 C 34.523438 -52.882812 38.046875 -51.171875 41.609375 -49.515625 C 45.171875 -47.859375 48.578125 -45.953125 51.828125 -43.796875 C 54.109375 -42.304688 56.234375 -40.519531 58.203125 -38.4375 C 60.171875 -36.363281 61.820312 -34.082031 63.15625 -31.59375 C 64.5 -29.113281 65.285156 -26.453125 65.515625 -23.609375 C 65.859375 -19.785156 65.1875 -16.316406 63.5 -13.203125 C 61.820312 -10.097656 59.523438 -7.460938 56.609375 -5.296875 C 53.703125 -3.128906 50.539062 -1.476562 47.125 -0.34375 C 45.46875 0.226562 43.753906 0.628906 41.984375 0.859375 C 40.222656 1.085938 38.429688 1.203125 36.609375 1.203125 C 35.523438 1.203125 34.441406 1.15625 33.359375 1.0625 C 32.273438 0.976562 31.191406 0.878906 30.109375 0.765625 C 24.742188 -0.0234375 20.28125 -1.691406 16.71875 -4.234375 C 13.15625 -6.773438 10.734375 -10.140625 9.453125 -14.328125 C 8.171875 -18.515625 8.1875 -23.429688 9.5 -29.078125 C 9.664062 -29.816406 10.347656 -30.398438 11.546875 -30.828125 C 12.742188 -31.253906 13.851562 -31.46875 14.875 -31.46875 C 15.507812 -31.46875 16.039062 -31.367188 16.46875 -31.171875 C 16.894531 -30.972656 17.050781 -30.644531 16.9375 -30.1875 C 16.363281 -27.90625 16.019531 -25.566406 15.90625 -23.171875 C 15.738281 -19.753906 16.335938 -16.675781 17.703125 -13.9375 C 19.066406 -11.195312 21.046875 -8.914062 23.640625 -7.09375 C 26.242188 -5.269531 29.253906 -3.988281 32.671875 -3.25 C 34.441406 -2.851562 36.351562 -2.65625 38.40625 -2.65625 C 42 -2.65625 45.445312 -3.453125 48.75 -5.046875 C 52.050781 -6.640625 54.585938 -9.234375 56.359375 -12.828125 C 57.722656 -15.679688 58.265625 -18.578125 57.984375 -21.515625 C 57.703125 -24.453125 56.816406 -27.257812 55.328125 -29.9375 C 53.847656 -32.613281 52.023438 -34.976562 49.859375 -37.03125 C 47.003906 -39.707031 43.835938 -41.941406 40.359375 -43.734375 C 36.890625 -45.535156 33.382812 -47.265625 29.84375 -48.921875 C 27.851562 -49.890625 25.800781 -50.914062 23.6875 -52 C 21.582031 -53.082031 19.628906 -54.320312 17.828125 -55.71875 C 16.035156 -57.113281 14.507812 -58.78125 13.25 -60.71875 C 11.882812 -62.832031 11.070312 -65.195312 10.8125 -67.8125 C 10.5625 -70.4375 10.789062 -73.046875 11.5 -75.640625 C 12.21875 -78.234375 13.34375 -80.503906 14.875 -82.453125 C 16.757812 -84.835938 19.070312 -86.800781 21.8125 -88.34375 C 24.550781 -89.882812 27.488281 -91.023438 30.625 -91.765625 C 33.757812 -92.503906 36.78125 -92.875 39.6875 -92.875 C 44.695312 -92.875 49.113281 -91.804688 52.9375 -89.671875 C 56.757812 -87.535156 59.65625 -84.441406 61.625 -80.390625 C 63.59375 -76.347656 64.257812 -71.472656 63.625 -65.765625 Z M 63.625 -65.765625 "/></g></g></g><g clip-path="url(#648568aa45)"><g clip-path="url(#6ffd3ad0a6)"><path fill="#ffffff" d="M 243.648438 211.566406 L 256.839844 211.566406 L 256.839844 224.757812 L 243.648438 224.757812 Z M 243.648438 211.566406 " fill-opacity="1" fill-rule="nonzero"/></g></g><g clip-path="url(#987e0e6d45)"><path fill="#ffffff" d="M 318.367188 146.164062 C 311.425781 129.765625 301.5 115.035156 288.847656 102.386719 C 276.199219 89.742188 261.472656 79.808594 245.074219 72.871094 C 228.09375 65.691406 210.058594 62.050781 191.464844 62.050781 C 156.433594 62.050781 123.050781 75.214844 97.46875 99.113281 C 72.609375 122.339844 57.347656 153.558594 54.308594 187.253906 C 54.082031 187.40625 53.839844 187.808594 53.820312 188.082031 C 53.5 193.085938 53.195312 198.089844 52.941406 203.101562 C 52.765625 206.5 53.582031 209.59375 56.027344 212.117188 C 56.164062 212.257812 56.234375 212.492188 56.273438 212.695312 C 56.621094 214.519531 56.941406 216.347656 57.300781 218.167969 C 57.503906 219.195312 57.765625 220.210938 58.007812 221.234375 C 57.933594 221.308594 54.648438 217.792969 53.183594 216.175781 C 51.707031 214.550781 50.605469 212.605469 50.046875 210.480469 C 49.203125 207.285156 47.746094 204.367188 45.847656 201.683594 C 45.585938 201.308594 44.984375 200.898438 44.609375 200.957031 C 44.226562 201.015625 43.714844 201.589844 43.628906 202.011719 C 43.355469 203.402344 42.910156 204.890625 43.148438 206.234375 C 43.71875 209.441406 44.566406 212.609375 45.441406 215.75 C 46.1875 218.425781 47.808594 220.554688 50.117188 222.097656 C 52.269531 223.535156 54.457031 224.917969 56.65625 226.285156 C 57.679688 226.921875 58.699219 227.613281 59.515625 228.515625 C 59.917969 228.957031 60.265625 229.449219 60.519531 229.988281 C 60.726562 230.433594 60.820312 230.957031 60.945312 231.433594 C 61.117188 232.09375 61.265625 232.753906 61.453125 233.40625 C 61.53125 233.691406 61.613281 233.96875 61.691406 234.25 C 61.734375 234.398438 61.8125 235.011719 61.929688 235.089844 C 60.214844 233.890625 58.695312 232.535156 56.9375 231.667969 C 53.753906 230.097656 50.984375 228.039062 48.472656 225.578125 C 47.738281 224.859375 47.011719 224.121094 46.199219 223.492188 C 45.925781 223.28125 45.335938 223.230469 45.011719 223.378906 C 44.738281 223.507812 44.539062 224.011719 44.503906 224.371094 C 44.453125 224.820312 44.558594 225.304688 44.671875 225.753906 C 45.417969 228.691406 46.671875 231.410156 48.507812 233.804688 C 49.222656 234.742188 50.179688 235.65625 51.230469 236.148438 C 54.019531 237.453125 56.929688 238.496094 59.765625 239.695312 C 61.171875 240.289062 62.832031 240.484375 63.75 241.925781 C 64.121094 242.507812 64.421875 243.152344 64.648438 243.804688 C 65.347656 245.8125 65.996094 247.84375 66.679688 249.910156 C 60.40625 247.785156 54.792969 244.648438 49.519531 240.867188 C 48.367188 240.039062 45.445312 238.582031 45.15625 238.785156 C 44.503906 239.25 46.671875 244.566406 51.148438 248.621094 C 53.859375 251.070312 56.878906 253.132812 60.265625 254.59375 C 62.589844 255.589844 64.945312 255.839844 67.378906 255.050781 C 67.71875 254.941406 68.082031 254.910156 68.457031 254.839844 C 70.199219 259.355469 71.902344 263.773438 73.605469 268.191406 C 73.464844 268.207031 67.570312 264.695312 64.566406 263.195312 C 60.53125 261.179688 56.269531 259.539062 53.027344 256.207031 C 52.605469 255.773438 52.109375 255.355469 51.472656 255.765625 C 50.796875 256.203125 50.996094 256.875 51.210938 257.460938 C 51.921875 259.40625 52.832031 261.257812 54.390625 262.683594 C 58.480469 266.425781 62.8125 269.839844 68.007812 271.945312 C 71.871094 273.507812 75.792969 274.542969 75.792969 274.542969 C 87.542969 292.679688 103.484375 307.921875 122.179688 318.824219 C 143.121094 331.042969 167.082031 337.5 191.464844 337.5 C 210.058594 337.5 228.097656 333.859375 245.074219 326.675781 C 261.476562 319.738281 276.207031 309.808594 288.851562 297.160156 C 301.5 284.511719 311.425781 269.78125 318.367188 253.382812 C 325.546875 236.402344 329.1875 218.363281 329.1875 199.773438 C 329.1875 181.183594 325.546875 163.144531 318.367188 146.164062 Z M 56.796875 210.582031 C 55.742188 209.394531 55.007812 208.007812 54.875 206.507812 C 54.6875 204.382812 54.765625 202.230469 54.835938 200.089844 C 54.9375 197.199219 55.140625 194.316406 55.308594 191.246094 C 57.984375 194.671875 60.105469 205.917969 56.796875 210.582031 Z M 57.417969 224.742188 C 55.441406 223.488281 53.460938 222.25 51.5 220.976562 C 49.152344 219.457031 47.578125 217.34375 46.886719 214.625 C 44.085938 203.585938 44.816406 203.726562 45.109375 203.648438 C 46.46875 205.796875 47.617188 208.0625 48.273438 210.527344 C 49.019531 213.339844 50.429688 215.734375 52.402344 217.851562 C 54.484375 220.085938 56.503906 222.378906 58.535156 224.660156 C 58.816406 224.976562 59.035156 225.351562 59.160156 225.835938 C 58.578125 225.472656 57.996094 225.109375 57.417969 224.742188 Z M 57.019531 236.875 C 55.484375 236.265625 53.980469 235.578125 52.484375 234.886719 C 51.925781 234.625 51.339844 234.328125 50.90625 233.90625 C 48.777344 231.84375 47.683594 229.1875 46.554688 226.253906 C 48.023438 227.527344 49.207031 228.730469 50.570312 229.6875 C 52.265625 230.886719 54.066406 231.949219 55.886719 232.949219 C 58.59375 234.429688 60.917969 236.320312 62.65625 238.949219 C 60.777344 238.261719 58.878906 237.609375 57.019531 236.875 Z M 65.257812 237.101562 C 65.566406 235.058594 66.003906 233.035156 66.46875 231.023438 C 66.960938 228.890625 67.5 226.769531 68.117188 224.671875 C 68.351562 223.863281 68.597656 223.058594 68.878906 222.265625 C 69.054688 221.769531 69.199219 220.890625 69.652344 220.558594 C 69.710938 220.519531 69.804688 220.519531 69.835938 220.582031 C 69.851562 220.609375 69.851562 220.636719 69.851562 220.660156 C 69.921875 222.015625 69.992188 223.371094 70.0625 224.730469 C 70.097656 225.390625 70.125 226.054688 70.171875 226.714844 C 70.214844 227.304688 70.175781 227.917969 69.910156 228.460938 C 69.511719 229.292969 69.027344 230.085938 68.601562 230.90625 C 67.855469 232.347656 67.105469 233.78125 66.355469 235.21875 C 66.078125 235.75 65.800781 236.28125 65.527344 236.816406 C 65.46875 236.929688 65.425781 237.046875 65.257812 237.101562 Z M 60.917969 252.996094 C 57.679688 251.589844 54.785156 249.628906 52.222656 247.261719 C 50.878906 246.019531 48.890625 242.769531 48.972656 242.679688 C 50.675781 243.757812 52.371094 244.839844 54.078125 245.90625 C 57.339844 247.941406 60.832031 249.496094 64.4375 250.8125 C 66.304688 251.492188 66.449219 251.628906 67.679688 253.121094 C 65.40625 254.125 63.15625 253.96875 60.917969 252.996094 Z M 68.257812 247.234375 C 68.179688 247.433594 68.089844 247.628906 67.910156 248.070312 C 67.472656 246.773438 67.101562 245.683594 66.742188 244.589844 C 66.359375 243.4375 65.976562 242.285156 65.621094 241.121094 C 65.546875 240.875 65.5 240.539062 65.609375 240.332031 C 67.261719 237.125 68.941406 233.929688 70.695312 230.578125 C 71.25 232.578125 71.753906 234.367188 72.242188 236.164062 C 72.289062 236.332031 72.332031 236.542969 72.273438 236.695312 C 70.945312 240.210938 69.59375 243.726562 68.257812 247.234375 Z M 71.832031 222.976562 C 72.363281 224.238281 72.90625 225.347656 73.304688 226.503906 C 74.046875 228.652344 74.714844 230.824219 75.398438 232.996094 C 76.050781 235.074219 75.714844 237.117188 75.105469 239.3125 C 73.1875 233.992188 71.589844 228.761719 71.832031 222.976562 Z M 68.945312 251.449219 C 69.628906 247.105469 71.445312 243.121094 73.070312 238.972656 C 74.972656 240.996094 70.074219 252.011719 68.945312 251.449219 Z M 71.953125 259.117188 C 71.273438 257.335938 70.597656 255.601562 69.964844 253.851562 C 69.886719 253.640625 69.9375 253.253906 70.085938 253.113281 C 73.867188 249.597656 74.261719 243.316406 75.109375 243.378906 C 75.132812 243.855469 75.253906 244.355469 75.160156 244.808594 C 74.445312 248.144531 73.691406 251.480469 72.941406 254.8125 C 72.625 256.226562 72.292969 257.636719 71.953125 259.117188 Z M 82.710938 249.417969 C 83.53125 252.222656 83.832031 255.007812 82.746094 257.746094 C 81.273438 261.472656 79.683594 265.152344 78.136719 268.851562 C 77.902344 269.421875 77.644531 269.980469 77.355469 270.632812 C 76.769531 267.210938 80.375 253.015625 82.710938 249.417969 Z M 54.054688 259.808594 C 59.03125 262.324219 63.746094 264.71875 68.472656 267.085938 C 70.308594 268.003906 71.867188 269.269531 73.347656 270.632812 C 73.683594 271.199219 74.027344 271.757812 74.371094 272.3125 C 66.386719 270.257812 59.84375 265.871094 54.054688 259.808594 Z M 191.464844 335.4375 C 145.898438 335.4375 103.042969 312.15625 78.074219 274.269531 C 77.773438 273.808594 77.8125 273.191406 78.195312 272.796875 C 78.199219 272.792969 78.199219 272.789062 78.203125 272.789062 C 78.535156 272.453125 78.691406 271.921875 78.886719 271.46875 C 80.390625 268.011719 81.738281 264.480469 83.410156 261.105469 C 85.921875 256.035156 85.097656 250.980469 83.746094 245.878906 C 83.660156 245.558594 83.148438 245.152344 82.835938 245.152344 C 82.558594 245.152344 82.179688 245.613281 82.019531 245.949219 C 81.726562 246.5625 81.589844 247.246094 81.339844 247.882812 C 79.371094 252.835938 77.472656 257.820312 76.4375 263.070312 C 76.089844 264.824219 75.9375 266.613281 75.691406 268.382812 C 75.644531 268.375 75.59375 268.382812 75.585938 268.367188 C 73.75 264.5625 73.152344 260.605469 74.21875 256.472656 C 74.625 254.90625 75.15625 253.371094 75.546875 251.796875 C 75.882812 250.441406 76.550781 249.285156 77.363281 248.183594 C 80.3125 244.199219 83.296875 240.238281 86.175781 236.203125 C 87.894531 233.789062 88.71875 230.976562 88.851562 228.042969 C 88.941406 225.902344 88.734375 223.75 88.558594 221.609375 C 88.527344 221.242188 88.035156 220.730469 87.664062 220.628906 C 87.402344 220.558594 86.828125 220.996094 86.660156 221.339844 C 85.953125 222.796875 85.417969 224.332031 84.695312 225.785156 C 82.558594 230.046875 80.367188 234.285156 78.191406 238.527344 C 78.074219 238.757812 77.949219 238.988281 77.824219 239.21875 C 77.730469 238.304688 77.828125 237.433594 77.773438 236.570312 C 77.585938 233.578125 78.15625 230.816406 79.75 228.226562 C 80.375 227.210938 80.730469 226 81.023438 224.832031 C 82.136719 220.410156 82.125 215.925781 81.367188 211.464844 C 81.109375 209.949219 80.476562 208.492188 79.902344 207.046875 C 79.773438 206.71875 79.167969 206.363281 78.816406 206.394531 C 78.46875 206.429688 78.140625 206.917969 77.84375 207.242188 C 77.730469 207.367188 77.722656 207.589844 77.679688 207.773438 C 76.753906 211.648438 75.789062 215.519531 74.925781 219.414062 C 74.703125 220.425781 74.609375 221.546875 74.800781 222.554688 C 75.113281 224.226562 75.730469 225.839844 76.167969 227.492188 C 76.363281 228.210938 76.433594 228.960938 76.558594 229.691406 C 75.539062 227.625 74.804688 225.503906 73.894531 223.464844 C 73.265625 222.050781 72.96875 220.640625 73.121094 219.117188 C 73.171875 218.652344 73.25 218.183594 73.21875 217.71875 C 73.125 216.332031 73.039062 214.933594 72.828125 213.558594 C 72.78125 213.269531 72.246094 212.886719 71.910156 212.859375 C 71.660156 212.839844 71.28125 213.269531 71.105469 213.582031 C 70.703125 214.316406 70.417969 215.109375 70.039062 215.855469 C 69.222656 217.46875 68.335938 219.042969 67.550781 220.671875 C 65.585938 224.765625 64.800781 229.191406 64.03125 233.617188 C 63.96875 233.976562 63.878906 234.328125 63.804688 234.6875 C 63.082031 232.769531 62.625 230.851562 61.960938 229.007812 C 61.523438 227.796875 61.859375 226.910156 62.578125 226.003906 C 63.492188 224.859375 64.480469 223.761719 65.253906 222.523438 C 67.277344 219.308594 68.722656 215.824219 69.558594 212.113281 C 69.808594 211.011719 69.867188 209.824219 69.777344 208.691406 C 69.546875 205.691406 68.289062 202.980469 67.109375 200.269531 C 66.960938 199.929688 66.4375 199.566406 66.078125 199.5625 C 65.792969 199.554688 65.335938 200.027344 65.238281 200.371094 C 64.828125 201.773438 64.476562 203.195312 64.199219 204.628906 C 63.851562 206.429688 63.726562 208.285156 63.269531 210.054688 C 62.242188 214.046875 61.070312 217.996094 59.957031 221.964844 C 59.300781 219.378906 58.714844 216.710938 58.300781 214.015625 C 58.085938 212.632812 58.394531 211.265625 59.015625 209.949219 C 59.472656 208.976562 59.738281 207.898438 59.992188 206.84375 C 60.632812 204.167969 60.042969 201.511719 59.785156 198.847656 C 59.4375 195.234375 57.910156 192.078125 56.230469 188.984375 C 61.746094 118.890625 120.980469 64.109375 191.464844 64.109375 C 266.269531 64.109375 327.128906 124.96875 327.128906 199.773438 C 327.128906 274.578125 266.269531 335.4375 191.464844 335.4375 Z M 78.542969 241.726562 C 80.109375 238.539062 81.746094 235.394531 83.347656 232.222656 C 85.023438 228.902344 87.085938 225.019531 87.199219 225.039062 C 87.195312 225.984375 87.257812 226.933594 87.171875 227.871094 C 86.914062 230.84375 86.003906 233.601562 84.257812 236.042969 C 82.078125 239.09375 79.863281 242.132812 77.667969 245.179688 C 77.542969 245.113281 78.035156 242.761719 78.542969 241.726562 Z M 76.402344 222.753906 C 76.238281 222.113281 76.210938 221.363281 76.363281 220.722656 C 77.234375 217.105469 78.179688 213.503906 79.210938 209.90625 C 80.554688 215.9375 80.671875 221.886719 78.214844 227.683594 C 78.042969 227.671875 76.824219 224.40625 76.402344 222.753906 Z M 65.195312 209.359375 C 65.632812 207.648438 65.75 205.859375 66.011719 204.105469 C 66.066406 203.746094 66.140625 203.394531 66.230469 202.90625 C 67.644531 205.695312 68.53125 209.015625 67.984375 211.339844 C 67.070312 215.261719 65.558594 218.929688 63.359375 222.300781 C 62.941406 222.9375 62.402344 223.488281 61.917969 224.082031 C 60.828125 222.976562 64.164062 213.410156 65.195312 209.359375 Z M 65.195312 209.359375 " fill-opacity="1" fill-rule="nonzero"/></g></svg>