<?xml version="1.0" standalone="no"?>
<!DOCTYPE svg PUBLIC "-//W3C//DTD SVG 20010904//EN"
 "http://www.w3.org/TR/2001/REC-SVG-20010904/DTD/svg10.dtd">
<svg version="1.0" xmlns="http://www.w3.org/2000/svg"
 width="500.000000pt" height="500.000000pt" viewBox="0 0 500.000000 500.000000"
 preserveAspectRatio="xMidYMid meet">

<g transform="translate(0.000000,500.000000) scale(0.100000,-0.100000)"
fill="#000000" stroke="none">
<path d="M2287 4154 c-826 -128 -1454 -772 -1559 -1597 -19 -151 -17 -340 3
-363 16 -18 44 -122 35 -131 -10 -10 -87 95 -102 140 -22 65 -53 119 -68 114
-29 -9 -7 -177 30 -235 9 -13 45 -43 82 -67 37 -23 75 -51 84 -61 18 -20 35
-74 23 -74 -13 0 -141 88 -164 114 -14 14 -33 26 -43 26 -15 0 -17 -5 -12 -27
21 -88 69 -138 165 -173 77 -28 92 -41 112 -102 l16 -47 -47 18 c-26 10 -90
43 -142 75 -52 31 -96 52 -98 46 -7 -21 49 -98 100 -137 75 -58 115 -75 168
-75 l46 0 31 -82 c17 -44 29 -82 28 -84 -1 -2 -24 10 -51 26 -27 16 -79 43
-116 61 -37 18 -75 42 -84 52 -19 22 -44 25 -44 7 0 -62 164 -189 295 -228 31
-9 48 -23 72 -60 92 -139 265 -316 426 -433 209 -154 457 -262 727 -318 103
-22 141 -24 360 -24 220 0 256 2 355 24 801 172 1376 806 1464 1613 61 557
-154 1132 -568 1520 -280 262 -619 424 -1008 483 -122 18 -396 18 -516 -1z
m637 -48 c65 -15 164 -43 220 -63 633 -219 1091 -768 1198 -1438 17 -108 17
-449 0 -545 -36 -202 -82 -341 -173 -525 -304 -615 -936 -1005 -1630 -1005
-182 0 -431 47 -617 116 -341 128 -658 372 -851 657 l-33 49 46 104 c38 86 46
116 46 164 0 65 -15 119 -30 104 -16 -16 -52 -117 -74 -209 l-23 -90 -12 53
c-20 79 5 170 69 252 15 19 48 66 74 103 45 67 46 70 46 148 0 43 -4 79 -9 79
-5 0 -35 -53 -67 -117 -58 -116 -59 -117 -62 -79 -2 24 5 58 19 90 27 63 37
178 19 241 -24 86 -39 74 -65 -53 -14 -67 -16 -96 -8 -134 5 -26 8 -48 6 -48
-9 0 -34 80 -37 124 -2 28 -4 57 -5 64 -4 55 -85 -98 -104 -197 -6 -34 -14
-61 -18 -61 -3 0 -11 17 -17 38 -11 35 -10 40 24 89 71 103 88 188 56 272 -24
62 -38 62 -51 -1 -29 -130 -55 -228 -62 -228 -15 0 -21 110 -9 156 17 59 8
158 -19 220 -27 59 -24 115 16 293 59 271 182 525 359 742 83 102 259 266 364
341 160 113 393 224 567 269 193 50 276 59 508 55 197 -3 232 -6 339 -30z
m-2148 -1790 c4 -36 1 -73 -6 -91 -11 -29 -12 -29 -26 -11 -15 21 -20 159 -7
206 7 25 7 25 20 -9 8 -18 16 -61 19 -95z m128 -111 c0 -36 -9 -69 -33 -117
-17 -38 -36 -68 -42 -68 -13 0 -12 8 16 103 13 47 28 105 31 128 6 35 8 39 17
23 6 -11 11 -41 11 -69z m-259 -17 c9 -26 37 -71 63 -100 83 -95 82 -94 33
-67 -75 40 -106 79 -124 152 -10 37 -17 76 -17 89 l1 23 14 -25 c8 -14 22 -46
30 -72z m424 -80 c1 -50 -19 -139 -29 -133 -20 12 -22 77 -4 147 15 61 19 69
25 48 4 -14 7 -42 8 -62z m-161 -199 c-18 -32 -33 -57 -35 -56 -3 4 15 83 34
147 l17 55 8 -44 c7 -39 4 -51 -24 -102z m81 39 c22 -64 27 -118 13 -118 -5 0
-14 18 -21 40 -14 48 -26 140 -18 140 3 0 15 -28 26 -62z m167 -22 c-6 -32
-104 -182 -113 -173 -2 3 22 57 54 121 55 110 73 126 59 52z m-345 -83 l24
-25 -25 7 c-64 19 -136 62 -157 94 -13 19 -23 38 -23 42 0 12 154 -88 181
-118z m124 -73 c-15 -39 -29 -69 -31 -67 -2 2 -10 24 -18 49 -14 48 -14 47 32
128 l26 45 9 -42 c8 -35 5 -52 -18 -113z m25 -53 c-12 -31 -26 -60 -32 -63
-14 -9 -5 26 25 104 15 40 22 51 25 36 1 -11 -7 -46 -18 -77z m-120 -52 c16
-3 36 -15 46 -26 17 -18 16 -19 -20 -19 -20 0 -55 9 -77 21 -42 21 -129 95
-129 109 0 5 34 -12 76 -35 42 -24 89 -47 104 -50z m145 -7 c-10 -46 -21 -87
-25 -91 -4 -5 -12 5 -18 22 -10 27 -8 36 13 67 13 19 27 48 30 65 4 17 9 28
13 25 3 -3 -3 -43 -13 -88z m89 -164 c-20 -49 -38 -91 -41 -94 -20 -20 34 209
61 255 10 17 11 14 14 -26 2 -35 -6 -68 -34 -135z m-229 -21 c55 -28 111 -63
125 -78 l25 -27 -55 21 c-55 21 -177 98 -202 128 -16 20 -17 20 107 -44z"/>
<path d="M2295 3260 c-149 -33 -249 -109 -281 -216 -20 -68 -17 -122 10 -180
32 -70 75 -101 271 -201 145 -74 179 -96 231 -149 190 -191 103 -444 -152
-444 -138 0 -239 58 -284 162 -20 46 -22 63 -16 137 l6 84 -37 -6 c-52 -9 -63
-24 -69 -98 -10 -101 14 -171 80 -235 59 -58 112 -80 225 -94 184 -24 359 56
427 195 53 109 20 231 -90 340 -50 49 -92 76 -231 147 -94 48 -186 101 -207
118 -145 119 -78 348 113 389 166 36 305 -77 317 -257 3 -46 9 -75 17 -78 7
-3 30 2 50 10 l38 16 -6 76 c-13 175 -122 280 -300 289 -39 2 -90 0 -112 -5z"/>
<path d="M3295 2168 c-49 -29 -60 -87 -24 -132 27 -34 98 -37 129 -6 25 25 27
89 3 119 -21 26 -80 36 -108 19z"/>
<path d="M3936 1995 c-3 -9 11 -34 36 -62 36 -42 38 -48 22 -54 -11 -4 -38 -8
-62 -8 -35 -1 -44 -5 -51 -23 -9 -25 -18 -20 126 -77 51 -20 53 -20 63 -2 8
17 2 21 -52 42 -34 12 -57 24 -52 25 5 1 30 5 57 9 52 7 59 21 26 51 -11 10
-25 27 -30 36 -9 16 -5 16 47 -3 46 -18 58 -19 65 -8 11 19 5 23 -84 58 -88
35 -102 37 -111 16z"/>
<path d="M3813 1668 c-67 -18 -86 -102 -35 -159 23 -25 36 -32 71 -33 37 -1
47 4 73 33 26 29 30 39 25 74 -9 66 -67 103 -134 85z m71 -49 c32 -25 35 -68
6 -94 -23 -21 -61 -14 -90 15 -25 25 -25 55 0 80 26 26 51 25 84 -1z"/>
<path d="M3554 1369 c-4 -6 24 -42 65 -83 l72 -71 49 55 c38 43 46 58 37 69
-9 11 -18 6 -45 -28 l-34 -41 -63 55 c-67 59 -70 61 -81 44z"/>
<path d="M3380 1215 c-9 -11 -6 -35 15 -107 33 -111 33 -112 50 -98 9 8 12 22
9 40 -5 23 -1 31 20 45 22 15 31 16 53 6 21 -10 29 -9 39 1 10 11 -5 23 -81
70 -78 47 -96 54 -105 43z m77 -97 c-21 -17 -22 -16 -34 15 -17 48 -16 49 22
25 l34 -23 -22 -17z"/>
<path d="M3175 1080 c-3 -5 1 -23 10 -39 8 -17 15 -32 15 -35 0 -3 -17 -14
-39 -25 l-38 -20 -19 34 c-18 34 -37 44 -48 26 -3 -5 15 -48 40 -96 33 -62 50
-85 61 -81 8 3 17 6 19 6 2 0 -5 18 -16 40 l-20 40 32 20 c18 11 36 20 40 20
3 0 15 -16 27 -35 20 -35 35 -43 46 -26 8 14 -77 181 -92 181 -6 0 -15 -4 -18
-10z"/>
<path d="M2844 946 c-17 -8 -34 -21 -38 -31 -19 -52 12 -85 81 -85 36 0 43 -3
43 -19 0 -22 -37 -35 -75 -25 -21 5 -25 3 -25 -15 0 -19 6 -21 50 -21 41 0 56
5 75 25 29 28 31 42 9 73 -12 18 -25 22 -65 22 -36 0 -51 4 -56 16 -8 21 13
34 55 34 34 0 45 23 16 34 -22 9 -35 7 -70 -8z"/>
</g>
</svg>
